<svg xmlns="http://www.w3.org/2000/svg" width="61.674" height="62.358" viewBox="0 0 61.674 62.358"><g transform="translate(-0.27 1.722) rotate(-2)"><g transform="translate(0 -0.004)"><path d="M0,443.041A34.264,34.264,0,0,1,2.728,429.4a33.5,33.5,0,0,1,8.265-11.346c.333-.3.583-.321.892.023q3.049,3.391,6.116,6.765c.518.571,1.057,1.122,1.584,1.684.611.649.618.659-.019,1.249a20.119,20.119,0,0,0-4.6,6.183,16.9,16.9,0,0,0-1.625,9.325,13.21,13.21,0,0,0,4.113,8.374c.715.664.684.655.041,1.39-2.04,2.331-4.06,4.679-6.091,7.018-.7.8-1.415,1.594-2.113,2.4-.55.634-.621.645-1.189.059a28.192,28.192,0,0,1-5.773-8.8A23.378,23.378,0,0,1,.5,447.376C.3,445.658.1,443.939,0,443.041Z" transform="translate(0 -410.083)"/><path d="M692.985,2174.969c-1.994-.213-4.008-.313-5.977-.663a25.158,25.158,0,0,1-8.688-3.288c-.4-.245-.811-.486-1.214-.733s-.518-.521-.15-.944c1.176-1.356,2.308-2.75,3.48-4.11,1.791-2.076,3.609-4.129,5.4-6.207a1.14,1.14,0,0,1,1.391-.383,15.756,15.756,0,0,0,7.257.359,18.094,18.094,0,0,0,7.428-3.047,21.672,21.672,0,0,0,2.363-1.964c.349-.315.594-.379.933,0q3.683,4.054,7.386,8.09c.708.771,1.444,1.518,2.162,2.279.6.64.592.662-.008,1.281a30.926,30.926,0,0,1-7.9,5.768,29.7,29.7,0,0,1-7.5,2.831,19.579,19.579,0,0,1-6.35.514Z" transform="translate(-664.201 -2113.855)"/><path d="M1602.92,1356.627c.521-.641.966-1.21,1.432-1.76q2.546-3,5.105-6c.771-.9,1.572-1.773,2.34-2.675a1.3,1.3,0,0,1,1.183-.521c1.907.157,3.814.292,5.72.434.059,0,.118.009.177.011,2.109.093,4.219.167,6.326.28,2.6.14,5.2.319,7.794.467.321.018.455.12.468.448a31.506,31.506,0,0,1-.72,9.94,33.816,33.816,0,0,1-2.955,7.587c-.707,1.25-1.507,2.449-2.3,3.651-.355.541-.521.541-.961.064q-3.758-4.07-7.5-8.15-1.248-1.35-2.551-2.647a1.243,1.243,0,0,0-.674-.295c-.7-.1-1.411-.169-2.12-.21-1.851-.106-3.706-.181-5.558-.287C1606.437,1356.87,1604.748,1356.747,1602.92,1356.627Z" transform="translate(-1573.245 -1320.757)"/><path d="M793.489,0a28.807,28.807,0,0,1,14.663,3.751c1.027.584,1.977,1.3,2.968,1.948.443.289.439.587.1.965q-1.726,1.914-3.43,3.848c-1.213,1.376-2.427,2.753-3.614,4.153a.617.617,0,0,1-.9.2,19.682,19.682,0,0,0-11.42-2.072,16,16,0,0,0-6.069,2.06.691.691,0,0,1-.985-.155q-3.536-3.869-7.086-7.728c-.241-.262-.492-.514-.736-.772-.5-.527-.514-.722.127-1.1a42.253,42.253,0,0,1,4.509-2.457A39.214,39.214,0,0,1,786.931.865,23.59,23.59,0,0,1,793.489,0Z" transform="translate(-762.236 0.004)"/></g></g></svg>