<svg xmlns="http://www.w3.org/2000/svg" width="453" height="453" viewBox="0 0 453 453"><defs><style>.a{fill:#fff200;}</style></defs><g transform="translate(677 60)"><circle class="a" cx="226.5" cy="226.5" r="226.5" transform="translate(-677 -60)"/><g transform="translate(-582.487 37.171) rotate(-2)"><g transform="translate(0 0)"><path d="M0,108.528C.406,85.8,4.018,67.44,11.739,49.818,20.037,30.884,32.141,14.867,47.3,1c1.434-1.308,2.507-1.383,3.84.1q13.122,14.59,26.318,29.11c2.23,2.455,4.547,4.827,6.817,7.244,2.629,2.794,2.659,2.837-.08,5.375A86.571,86.571,0,0,0,64.418,69.432c-6.033,12.76-8.642,26.229-6.994,40.126s7.2,26.274,17.7,36.031c3.076,2.859,2.943,2.819.177,5.98-8.777,10.031-17.47,20.135-26.208,30.2C46.085,185.229,43,188.627,40,192.092c-2.366,2.73-2.671,2.776-5.117.256a121.3,121.3,0,0,1-24.841-37.882c-3.7-8.781-6.778-17.753-7.893-27.281C1.292,119.791.446,112.4,0,108.528Z" transform="translate(0 33.284)"/><path d="M69.946,91.4c-8.58-.914-17.245-1.349-25.72-2.854A108.238,108.238,0,0,1,6.841,74.4c-1.739-1.055-3.49-2.09-5.222-3.155C-.163,70.15-.612,69,.971,67.185,6.032,61.351,10.9,55.35,15.947,49.5c7.707-8.936,15.529-17.771,23.23-26.708,1.713-1.986,3.389-2.484,5.986-1.648,10.242,3.286,20.684,3.119,31.227,1.545,11.759-1.751,22.226-6.6,31.96-13.113a93.253,93.253,0,0,0,10.167-8.45c1.5-1.355,2.556-1.632,4.017-.022q15.848,17.443,31.78,34.81c3.044,3.32,6.213,6.534,9.3,9.8,2.6,2.755,2.549,2.851-.035,5.513a133.1,133.1,0,0,1-33.994,24.822A127.872,127.872,0,0,1,97.333,88.231c-8.956,1.953-18.06,3.239-27.324,2.215Q69.978,90.922,69.946,91.4Z" transform="translate(53.908 171.569)"/><path d="M0,47.148c2.24-2.759,4.154-5.206,6.16-7.573q10.956-12.927,21.968-25.8C31.443,9.9,34.893,6.148,38.2,2.267A5.6,5.6,0,0,1,43.287.024C51.493.7,59.7,1.279,67.9,1.894c.256.02.51.037.763.049,9.074.4,18.152.717,27.222,1.205,11.183.6,22.354,1.374,33.538,2.008,1.381.079,1.957.514,2.014,1.927.584,14.375.858,28.685-3.1,42.77-3.182,11.319-6.92,22.391-12.715,32.645-3.041,5.381-6.485,10.54-9.879,15.71-1.529,2.33-2.24,2.328-4.135.276Q85.441,80.972,69.318,63.416q-5.37-5.807-10.976-11.392a5.353,5.353,0,0,0-2.9-1.269c-3.027-.418-6.07-.727-9.119-.9-7.965-.458-15.949-.778-23.918-1.237C15.132,48.2,7.865,47.664,0,47.148Z" transform="translate(127.69 107.198)"/><path d="M72.613.019c22.762-.095,43.7,5.113,63.093,16.138,4.416,2.512,8.5,5.6,12.769,8.382,1.908,1.245,1.89,2.528.427,4.151q-7.43,8.235-14.76,16.557c-5.22,5.922-10.445,11.846-15.55,17.868-1.213,1.434-2.146,1.76-3.869.876a84.69,84.69,0,0,0-49.141-8.914A68.849,68.849,0,0,0,39.469,63.94a2.973,2.973,0,0,1-4.24-.666Q20.014,46.625,4.738,30.022C3.7,28.895,2.62,27.812,1.569,26.7c-2.142-2.269-2.214-3.107.548-4.716,6.367-3.707,12.66-7.68,19.4-10.571A168.764,168.764,0,0,1,44.4,3.739,101.5,101.5,0,0,1,72.613.019Z" transform="translate(61.866 0)"/></g></g></g></svg>